<svg xmlns="http://www.w3.org/2000/svg" viewBox="0 0 800 600" role="img" aria-label="IATF16949 质量管理体系认证 · 证书占位">
  <defs>
    <linearGradient id="bg" x1="0" y1="0" x2="1" y2="1">
      <stop offset="0" stop-color="#082c58"/>
      <stop offset="1" stop-color="#0b3d7a"/>
    </linearGradient>
    <pattern id="grid" width="40" height="40" patternUnits="userSpaceOnUse">
      <path d="M40 0 H0 V40" fill="none" stroke="#5a6a7a" stroke-opacity=".25" stroke-width="1"/>
    </pattern>
  </defs>
  <rect width="800" height="600" fill="url(#bg)"/>
  <rect width="800" height="600" fill="url(#grid)"/>
  <g transform="translate(250.0,102.0) scale(0.75)">
    <path d="M140 110 h90 l40 40 v150 a10 10 0 0 1 -10 10 H150 a10 10 0 0 1 -10 -10 V120 a10 10 0 0 1 10 -10 z" fill="none" stroke="#dfe6ee" stroke-width="10"/><path d="M230 110 v40 h40 M160 190 h80 M160 225 h80 M160 260 h50" stroke="#dfe6ee" stroke-width="8"/>
  </g>
  <text x="400.0" y="456.0" text-anchor="middle" fill="#dfe6ee" font-size="27" font-family="Microsoft YaHei, PingFang SC, sans-serif" font-weight="bold">IATF16949 质量管理体系认证 · 证书占位</text>
  <text x="400.0" y="498.0" text-anchor="middle" fill="#8d9aa8" font-size="18" font-family="Arial, sans-serif">IATF16949 QMS Certificate</text>
</svg>
